<?xml version="1.0" standalone="no"?>
<!DOCTYPE svg PUBLIC "-//W3C//DTD SVG 20010904//EN"
 "http://www.w3.org/TR/2001/REC-SVG-20010904/DTD/svg10.dtd">
<svg version="1.0" xmlns="http://www.w3.org/2000/svg"
 width="230.000000pt" height="392.000000pt" viewBox="0 0 230.000000 392.000000"
 preserveAspectRatio="xMidYMid meet">
<metadata>
Created by potrace 1.16, written by Peter Selinger 2001-2019
</metadata>
<g transform="translate(0.000000,392.000000) scale(0.100000,-0.100000)"
fill="#262626" stroke="#262626" stroke-width="70" stroke-linejoin="round" stroke-linecap="round">
<path d="M1020 3794 c-390 -28 -663 -110 -730 -218 -20 -33 -20 -42 -20 -1422
l0 -1388 48 -46 c30 -29 72 -56 113 -72 l64 -26 5 -118 c3 -69 10 -128 18
-141 22 -40 63 -53 162 -53 l90 0 0 -35 c0 -28 -4 -35 -20 -35 -18 0 -20 -7
-20 -80 l0 -81 143 3 142 3 0 75 c0 70 -1 75 -22 78 -19 3 -23 10 -23 38 l0
34 205 0 205 0 0 -34 c0 -28 -4 -35 -22 -38 -22 -3 -23 -8 -23 -78 l0 -75 145
0 145 0 0 75 c0 70 -1 75 -22 78 -19 3 -23 10 -23 37 l0 33 106 4 c105 3 106
3 135 36 29 32 29 34 29 150 l0 118 78 36 c50 24 92 52 115 78 l37 40 0 1391
0 1391 -21 30 c-85 118 -407 202 -817 212 -92 2 -192 2 -222 0z m410 -54 c289
-26 534 -101 591 -181 19 -26 19 -61 19 -1397 l0 -1370 -26 -31 c-75 -90 -355
-164 -679 -180 -438 -22 -885 56 -997 176 l-23 25 -3 1361 c-1 749 0 1373 3
1385 16 67 157 136 360 178 196 40 519 55 755 34z m-750 -3165 c275 -54 692
-56 970 -4 170 32 155 38 158 -60 3 -97 -8 -135 -46 -150 -18 -6 -225 -9 -598
-8 -547 2 -573 3 -593 21 -19 17 -21 30 -21 123 0 56 1 103 3 103 1 0 58 -11
127 -25z m250 -300 l0 -36 -57 3 c-57 3 -58 3 -61 36 l-3 32 60 0 61 0 0 -35z
m608 3 c-3 -33 -3 -33 -57 -33 -45 0 -55 3 -57 19 -5 37 6 46 63 46 l54 0 -3
-32z m-568 -123 l0 -35 -100 0 -100 0 0 35 0 35 100 0 100 0 0 -35z m608 3
l-3 -33 -95 0 -95 0 -3 33 -3 32 101 0 101 0 -3 -32z"/>
<path d="M1098 3070 c-34 -10 -86 -46 -116 -80 -41 -47 -56 -91 -56 -166 1
-83 28 -141 90 -192 38 -32 119 -62 165 -62 91 0 198 79 234 173 48 125 -24
277 -152 323 -42 15 -123 17 -165 4z m184 -63 c74 -41 122 -150 100 -224 -18
-59 -47 -100 -93 -130 -37 -24 -53 -28 -115 -28 -64 0 -77 3 -116 31 -116 82
-119 246 -6 337 63 51 154 57 230 14z"/>
<path d="M1156 2975 c-3 -9 -3 -28 0 -42 5 -17 0 -34 -15 -53 -38 -52 -19
-110 35 -110 26 0 64 32 64 54 0 7 -9 24 -19 38 -12 15 -21 44 -23 74 -2 35
-7 50 -19 52 -9 2 -19 -4 -23 -13z m34 -145 c0 -5 -7 -10 -15 -10 -8 0 -15 5
-15 10 0 6 7 10 15 10 8 0 15 -4 15 -10z"/>
<path d="M1550 518 c-27 -30 -26 -73 5 -103 43 -44 109 -23 121 40 13 70 -77
115 -126 63z m75 -48 c0 -16 -6 -26 -19 -28 -24 -5 -37 17 -25 41 14 26 44 17
44 -13z"/>
</g>
</svg>
