<?xml version="1.0" standalone="no"?>
<!DOCTYPE svg PUBLIC "-//W3C//DTD SVG 20010904//EN"
 "http://www.w3.org/TR/2001/REC-SVG-20010904/DTD/svg10.dtd">
<svg version="1.0" xmlns="http://www.w3.org/2000/svg"
 width="365.000000pt" height="247.000000pt" viewBox="0 0 365.000000 247.000000"
 preserveAspectRatio="xMidYMid meet">
<metadata>
Created by potrace 1.16, written by Peter Selinger 2001-2019
</metadata>
<g transform="translate(0.000000,247.000000) scale(0.100000,-0.100000)"
fill="#535353" stroke="none">
<path d="M1271 2194 c-56 -58 -101 -114 -101 -124 0 -21 15 -27 167 -65 118
-29 141 -31 150 -10 6 17 -63 272 -79 293 -6 6 -16 12 -23 12 -7 0 -58 -48
-114 -106z m125 -69 c12 -41 19 -75 17 -75 -7 0 -125 30 -142 36 -10 3 2 21
39 59 30 30 57 55 60 55 3 0 15 -34 26 -75z"/>
<path d="M742 2198 c-13 -13 -18 -271 -6 -302 3 -9 16 -16 27 -16 27 0 256
136 264 157 3 8 -1 21 -8 28 -16 15 -247 145 -258 145 -4 0 -12 -5 -19 -12z
m125 -114 c35 -19 61 -39 58 -44 -10 -17 -115 -71 -125 -65 -11 7 -14 145 -3
145 3 0 35 -16 70 -36z"/>
<path d="M1115 1953 c-65 -9 -158 -47 -213 -88 -75 -54 -123 -114 -163 -200
-29 -61 -33 -81 -37 -174 -3 -90 -1 -116 18 -171 27 -82 45 -110 71 -110 31 0
32 21 3 86 -21 44 -28 80 -32 145 -7 143 32 242 133 338 162 154 407 155 575
4 80 -72 125 -163 138 -278 6 -56 9 -60 32 -60 21 0 26 5 28 35 2 19 -2 60 -8
90 -54 249 -293 417 -545 383z"/>
<path d="M1602 1908 c-6 -6 -12 -16 -12 -21 0 -13 141 -251 154 -259 6 -4 16
-8 22 -8 16 0 156 256 152 278 -3 15 -20 17 -153 20 -109 2 -154 -1 -163 -10z
m228 -55 c1 -12 -64 -133 -70 -133 -7 0 -80 123 -80 133 0 10 150 9 150 0z"/>
<path d="M498 1737 c-84 -25 -139 -46 -143 -56 -8 -22 203 -233 230 -229 17 3
26 26 58 151 30 116 35 152 26 163 -15 18 -11 19 -171 -29z m98 -59 c-3 -13
-11 -47 -17 -75 -7 -29 -15 -53 -18 -53 -4 0 -31 24 -60 54 l-53 54 58 16 c33
10 64 19 69 21 22 8 27 4 21 -17z"/>
<path d="M694 863 c-284 -355 -399 -505 -399 -523 l0 -25 732 -3 732 -2 173
212 c96 117 272 333 392 481 119 147 221 267 225 267 4 0 82 -91 172 -202 553
-679 615 -753 634 -753 32 0 30 38 -3 77 -16 18 -188 229 -382 468 -194 239
-367 450 -383 468 l-31 32 -731 0 -732 0 -399 -497z m1780 425 c-5 -7 -174
-217 -376 -465 l-369 -453 -670 0 c-448 0 -670 3 -667 10 2 6 167 215 368 465
l364 455 679 0 c540 0 677 -3 671 -12z"/>
<path d="M1103 1178 c-16 -18 -148 -175 -293 -348 -145 -173 -269 -322 -277
-331 -7 -9 -11 -24 -7 -33 6 -15 57 -16 593 -16 l586 1 106 127 c58 70 189
226 290 347 101 121 190 228 198 238 11 14 11 20 1 32 -11 13 -89 15 -589 15
l-577 0 -31 -32z m335 -46 c-7 -10 -38 -48 -68 -85 l-55 -67 -149 0 c-141 0
-148 1 -135 18 8 9 41 47 73 85 l58 67 144 0 c138 0 145 -1 132 -18z m364 -19
c-17 -21 -50 -60 -74 -86 l-43 -48 -144 3 -143 3 68 83 68 82 149 0 149 0 -30
-37z m398 31 c0 -3 -30 -42 -66 -85 l-66 -79 -144 0 c-79 0 -144 2 -144 5 0 3
30 42 67 85 l66 80 144 0 c78 0 143 -3 143 -6z m-962 -239 c2 -6 -25 -45 -60
-87 l-63 -78 -149 0 c-140 0 -148 1 -135 18 37 47 115 138 128 150 18 15 274
12 279 -3z m385 5 c3 -3 -26 -42 -64 -87 l-70 -83 -145 0 c-113 0 -144 3 -138
13 4 6 36 46 71 88 l63 76 139 -1 c77 -1 142 -3 144 -6z m379 4 c4 -3 -25 -43
-64 -89 l-72 -85 -143 0 c-79 0 -143 3 -143 6 0 14 127 157 145 164 22 8 264
12 277 4z m-958 -256 c-11 -13 -44 -51 -74 -85 l-53 -63 -143 0 c-79 0 -144 2
-144 5 0 3 30 42 67 85 l66 80 150 0 150 0 -19 -22z m386 17 c0 -3 -30 -42
-67 -85 l-66 -80 -149 0 -149 0 72 85 71 85 144 0 c79 0 144 -2 144 -5z m368
-13 c-7 -10 -38 -48 -68 -85 l-55 -67 -149 0 c-141 0 -148 1 -135 18 8 9 41
47 73 85 l58 67 144 0 c138 0 145 -1 132 -18z"/>
<path d="M594 1312 c-20 -13 -153 -264 -147 -278 4 -11 37 -14 158 -14 195 0
194 -1 130 112 -68 119 -114 188 -122 188 -5 0 -13 -4 -19 -8z m60 -163 c20
-33 36 -62 36 -65 0 -2 -36 -4 -81 -4 l-80 0 38 69 c20 38 40 68 44 65 4 -2
23 -31 43 -65z"/>
<path d="M2497 868 c-8 -13 -70 -124 -137 -248 -89 -165 -119 -229 -112 -240
6 -11 31 -16 86 -18 l76 -3 0 -153 c0 -158 6 -184 41 -171 14 5 279 483 279
503 0 20 -38 32 -104 32 l-65 0 -3 158 c-3 153 -4 157 -25 160 -14 2 -27 -5
-36 -20z m20 -355 c9 -7 41 -13 70 -13 29 0 53 -2 53 -6 0 -6 -126 -239 -149
-274 -15 -24 -16 -21 -21 85 l-5 110 -67 3 c-38 2 -68 6 -68 9 0 7 98 193 139
263 l26 45 3 -105 c2 -84 6 -107 19 -117z"/>
</g>
</svg>
