<?xml version="1.0" standalone="no"?>
<!DOCTYPE svg PUBLIC "-//W3C//DTD SVG 20010904//EN"
 "http://www.w3.org/TR/2001/REC-SVG-20010904/DTD/svg10.dtd">
<svg version="1.0" xmlns="http://www.w3.org/2000/svg"
 width="207.000000pt" height="149.000000pt" viewBox="0 0 207.000000 149.000000"
 preserveAspectRatio="xMidYMid meet">
<metadata>
Created by potrace 1.16, written by Peter Selinger 2001-2019
</metadata>
<g transform="translate(0.000000,149.000000) scale(0.100000,-0.100000)"
fill="#2C2A29" stroke="none">
<path d="M1462 1358 c-7 -7 -12 -41 -12 -84 0 -75 12 -100 44 -88 23 9 24 169
0 178 -20 8 -18 8 -32 -6z"/>
<path d="M1224 1285 c-3 -8 11 -44 32 -80 30 -51 43 -65 59 -63 31 5 29 39 -7
101 -25 42 -39 57 -56 57 -12 0 -25 -7 -28 -15z"/>
<path d="M1659 1253 c-47 -75 -50 -113 -9 -113 23 0 95 122 86 145 -11 31 -46
16 -77 -32z"/>
<path d="M1064 1125 c-10 -26 3 -42 60 -75 62 -35 89 -36 94 -3 3 17 -9 28
-61 57 -71 40 -85 43 -93 21z"/>
<path d="M1803 1104 c-43 -25 -63 -42 -63 -55 0 -35 31 -34 96 1 67 35 82 54
63 76 -16 20 -27 18 -96 -22z"/>
<path d="M1394 1096 c-44 -20 -99 -71 -118 -110 -31 -65 -30 -66 107 -66 l122
-1 70 -92 c39 -51 75 -92 80 -92 6 0 20 20 33 45 58 115 1 264 -120 314 -45
19 -132 20 -174 2z"/>
<path d="M1790 895 c-24 -29 5 -45 85 -45 76 0 101 12 89 44 -9 22 -155 23
-174 1z"/>
<path d="M445 763 c-49 -64 -156 -201 -237 -304 -82 -104 -148 -191 -148 -194
0 -3 44 -5 98 -5 l97 1 189 244 c104 134 193 242 197 239 4 -2 92 -112 195
-244 l187 -240 469 0 c258 0 468 4 466 8 -1 5 -109 144 -238 310 l-235 301
-475 0 -475 0 -90 -116z m577 -81 c15 -20 37 -49 49 -64 l21 -28 -90 0 -89 0
-46 60 c-26 33 -47 62 -47 65 0 3 39 5 88 5 l87 0 27 -38z m251 -22 c26 -32
47 -62 47 -65 0 -3 -38 -5 -84 -5 l-84 0 -39 48 c-74 91 -77 82 23 82 l89 0
48 -60z m231 3 c25 -32 46 -61 46 -65 0 -5 -38 -8 -84 -8 l-84 0 -51 65 -51
65 89 0 89 0 46 -57z m-336 -167 c63 -82 63 -82 -16 -84 -88 -3 -101 3 -149
63 -62 80 -65 75 34 75 l88 0 43 -54z m241 -10 c28 -35 51 -65 51 -67 0 -7
-165 -4 -176 3 -5 4 -32 34 -58 67 l-47 61 89 0 90 0 51 -64z m234 0 c26 -34
47 -65 47 -68 0 -3 -38 -5 -84 -6 l-84 0 -51 63 c-28 36 -51 67 -51 70 0 3 39
5 88 5 l87 0 48 -64z"/>
<path d="M1743 725 c-8 -21 16 -45 82 -80 49 -26 57 -28 70 -14 23 23 11 42
-51 77 -61 35 -92 40 -101 17z"/>
<path d="M540 360 l0 -100 100 0 101 0 -3 98 -3 97 -97 3 -98 3 0 -101z"/>
</g>
</svg>
