<?xml version="1.0" standalone="no"?>
<!DOCTYPE svg PUBLIC "-//W3C//DTD SVG 20010904//EN"
 "http://www.w3.org/TR/2001/REC-SVG-20010904/DTD/svg10.dtd">
<svg version="1.0" xmlns="http://www.w3.org/2000/svg"
 width="98.000000pt" height="90.000000pt" viewBox="0 0 98.000000 90.000000"
 preserveAspectRatio="xMidYMid meet">
<metadata>
Created by potrace 1.16, written by Peter Selinger 2001-2019
</metadata>
<g transform="translate(0.000000,90.000000) scale(0.100000,-0.100000)"
fill="#090909" stroke="none">
<path d="M464 817 c-3 -8 -4 -36 -2 -63 2 -36 7 -49 18 -49 20 0 22 116 3 122
-7 3 -16 -2 -19 -10z"/>
<path d="M200 707 c0 -16 72 -87 88 -87 23 0 12 26 -26 63 -39 38 -62 47 -62
24z"/>
<path d="M697 682 c-38 -39 -47 -62 -24 -62 16 0 87 72 87 88 0 23 -26 12 -63
-26z"/>
<path d="M403 643 c-87 -30 -152 -141 -137 -234 10 -58 60 -128 114 -157 65
-34 162 -29 222 13 115 82 122 253 13 343 -63 51 -134 63 -212 35z m155 -37
c93 -49 129 -162 79 -251 -71 -125 -243 -125 -314 0 -67 119 18 265 155 265
29 0 65 -6 80 -14z"/>
<path d="M90 445 c0 -12 14 -15 65 -15 51 0 65 3 65 15 0 12 -14 15 -65 15
-51 0 -65 -3 -65 -15z"/>
<path d="M740 445 c0 -12 13 -15 66 -15 48 0 65 3 62 13 -3 7 -28 13 -66 15
-51 2 -62 0 -62 -13z"/>
<path d="M242 227 c-42 -43 -53 -67 -29 -67 16 0 87 71 87 87 0 26 -19 20 -58
-20z"/>
<path d="M664 256 c-10 -26 70 -106 88 -88 10 10 3 22 -34 59 -40 40 -48 44
-54 29z"/>
<path d="M464 177 c-3 -8 -4 -39 -2 -68 2 -40 7 -54 18 -54 20 0 22 126 3 132
-7 3 -15 -2 -19 -10z"/>
</g>
</svg>
